<svg xmlns="http://www.w3.org/2000/svg" viewBox="0 0 362.31 207.55"><defs><style>.cls-1,.cls-2{fill:#fff;}.cls-2{font-size:19.67px;font-family:Montserrat-Bold, Montserrat;font-weight:700;}.cls-3{letter-spacing:-0.02em;}.cls-4{letter-spacing:0em;}.cls-5{letter-spacing:-0.01em;}.cls-6{letter-spacing:-0.01em;}.cls-7{letter-spacing:-0.01em;}</style></defs><title>WHITE_2</title><g id="Camada_2" data-name="Camada 2"><g id="Camada_1-2" data-name="Camada 1"><polygon class="cls-1" points="91.09 174.07 113.35 174.07 113.35 135.57 158.76 135.57 158.76 113.76 113.35 113.76 113.35 89.85 158.76 89.85 158.76 68.8 91.09 68.8 91.09 174.07"/><polygon class="cls-1" points="223.06 111.71 191.94 69 169.38 69 169.38 174.53 191.94 174.53 191.94 107.8 223.06 149.91 254.04 107.8 254.04 174.27 276.6 174.27 276.6 69 254.04 69 223.06 111.71"/><path class="cls-1" d="M362.05,68.8H312.87V91.25h26.88v42.51a19.58,19.58,0,0,1-1.65,8,21.54,21.54,0,0,1-4.44,6.55,21.07,21.07,0,0,1-6.62,4.43,20,20,0,0,1-8,1.66c-4.42,0-7.87-1.23-10.38-3.69a26.46,26.46,0,0,1-6-9.4l-19.7,11.58a46.83,46.83,0,0,0,14.28,17.52q9,6.69,21.81,6.69a41.68,41.68,0,0,0,16.92-3.46,44.44,44.44,0,0,0,13.76-9.32,43.37,43.37,0,0,0,9.24-13.76,42,42,0,0,0,3.39-16.77v-65Z"/><polygon class="cls-1" points="169.73 184.34 58.29 184.34 58.29 107.46 49.48 107.46 114.02 33.95 131.25 53.92 161.62 54.02 114.02 0 0 129.86 35.89 129.86 35.89 206.74 191.95 206.74 191.95 184.34 169.73 184.34"/><text class="cls-2" transform="translate(203.14 202.32)"><tspan class="cls-3">C</tspan><tspan class="cls-4" x="14.13" y="0">ON</tspan><tspan class="cls-5" x="46.63" y="0">S</tspan><tspan x="58.99" y="0">TR</tspan><tspan class="cls-6" x="85.6" y="0">U</tspan><tspan class="cls-7" x="100.87" y="0">T</tspan><tspan x="112.83" y="0">ORA</tspan></text></g></g></svg>